<svg id="Layer_1" data-name="Layer 1" xmlns="http://www.w3.org/2000/svg" viewBox="0 0 105 105" width="80px">
    <defs>
        <style>.cls-1{fill:#fff;}.cls-2{fill:#00b4ff;}.cls-3{fill:#183672;}.cls-4{fill:#ff4500;}.cls-5{fill:#e1e6e8;}
        </style>
    </defs>
    <title>contact-icon</title>
    <path class="cls-1"
          d="M90.65,34.36A11.52,11.52,0,0,0,80.1,18.23a10.78,10.78,0,0,0-7.67,3,19,19,0,0,0-19-18.21,19.32,19.32,0,0,0-18.7,15.18A11.91,11.91,0,0,0,29,16.63a11.45,11.45,0,0,0-11.5,11.5,12.6,12.6,0,0,0,1.6,5.92c-.48,0-1.12-.16-1.6-.16a14.7,14.7,0,0,0,0,29.4H87.13a14.67,14.67,0,0,0,14.7-14.7A14.39,14.39,0,0,0,90.65,34.36Z"/>
    <path class="cls-2"
          d="M97,37.56a13,13,0,0,0-6.23-3.2A11.52,11.52,0,0,0,80.26,18.23a10.78,10.78,0,0,0-7.67,3,19.16,19.16,0,0,0-37.87-3A11.91,11.91,0,0,0,29,16.63a11.45,11.45,0,0,0-11.5,11.5,12.6,12.6,0,0,0,1.6,5.92c-.48,0-1.12-.16-1.6-.16a15,15,0,0,0-9.75,3.67"/>
    <path class="cls-3"
          d="M98.26,36.4l-.1-.12-.51-.38a17.8,17.8,0,0,0-2-1.36l-.06,0c-.33-.19-.66-.37-1-.54l-.46-.22c-.41-.18-.83-.35-1.25-.5a14.05,14.05,0,0,0,.47-3.68,13.16,13.16,0,0,0-13.1-13.1,13,13,0,0,0-6.55,1.76,20,20,0,0,0-1.66-5.11A20.92,20.92,0,0,0,53.58,1.29,20.91,20.91,0,0,0,33.93,15.83a14.87,14.87,0,0,0-4.64-.8,13.16,13.16,0,0,0-13.1,13.1,11.93,11.93,0,0,0,.64,4.16A16.39,16.39,0,0,0,17.63,65H87.29a16.64,16.64,0,0,0,16.46-16.45A16.24,16.24,0,0,0,98.26,36.4Zm-11,25.29H17.63a13.16,13.16,0,0,1-13.1-13.1,13,13,0,0,1,3.8-9.19,1.35,1.35,0,0,0,.83-.4,13.66,13.66,0,0,1,10.07-3.2,1.91,1.91,0,0,0,1.43-.8,1.71,1.71,0,0,0,0-1.75,9.9,9.9,0,0,1,8.47-15,8.53,8.53,0,0,1,4.8,1.43,2.19,2.19,0,0,0,1.43,0,1.67,1.67,0,0,0,1-1.11,17.57,17.57,0,0,1,17.1-13.9,16.63,16.63,0,0,1,1.74.08A17.14,17.14,0,0,1,70.68,21.26a1.39,1.39,0,0,0,.95,1.44,1.74,1.74,0,0,0,1.76-.32,10.65,10.65,0,0,1,6.71-2.56A10,10,0,0,1,90,29.67a9,9,0,0,1-.8,3.9,2.16,2.16,0,0,0-.11.79,2.18,2.18,0,0,0,.11.8,2.87,2.87,0,0,0,1.12.8,12.48,12.48,0,0,1,5.59,2.88l.27.12a13.11,13.11,0,0,1-8.9,22.73Z"/>
    <path class="cls-1"
          d="M76,54V48L70.2,47a15.92,15.92,0,0,0-2.4-5.59l3.35-4.8-4.31-4.31-4.79,3.35a19.09,19.09,0,0,0-5.6-2.39l-1-5.76H49.42l-1,5.76a16,16,0,0,0-5.6,2.39l-4.79-3.35L33.77,36.6l3.35,4.8A19,19,0,0,0,34.72,47L29,48V54l5.75,1a16.09,16.09,0,0,0,2.4,5.59l-3.35,4.79,4.31,4.32,4.79-3.36a19.12,19.12,0,0,0,5.6,2.4l1,5.75H55.5l1-5.75a16.05,16.05,0,0,0,5.6-2.4l4.79,3.36,4.31-4.32L67.8,60.57A19.18,19.18,0,0,0,70.2,55Z"/>
    <path class="cls-3"
          d="M55.5,76.23H49.42A1.55,1.55,0,0,1,47.83,75L47,70.16a19.11,19.11,0,0,1-4.16-1.76l-4,2.71A1.69,1.69,0,0,1,36.8,71l-4.31-4.31a1.68,1.68,0,0,1-.16-2.08l2.71-4a19.08,19.08,0,0,1-1.75-4.16l-4.8-.79A1.56,1.56,0,0,1,27.21,54V48a1.56,1.56,0,0,1,1.28-1.6l4.8-.8A18.8,18.8,0,0,1,35,41.4l-2.71-4a1.69,1.69,0,0,1,.16-2.08L36.8,31a1.68,1.68,0,0,1,2.08-.16l4,2.72A19.11,19.11,0,0,1,47,31.81l.8-4.8a1.56,1.56,0,0,1,1.59-1.27H55.5A1.56,1.56,0,0,1,57.09,27l.8,4.8a19.11,19.11,0,0,1,4.16,1.76l4-2.72a1.69,1.69,0,0,1,2.08.16l4.31,4.31a1.68,1.68,0,0,1,.16,2.08l-2.71,4a18.8,18.8,0,0,1,1.75,4.15l4.8.8A1.56,1.56,0,0,1,77.71,48V54a1.56,1.56,0,0,1-1.28,1.6l-4.8.79a19.08,19.08,0,0,1-1.75,4.16l2.71,4a1.69,1.69,0,0,1-.16,2.08L68.12,71a1.68,1.68,0,0,1-2.08.16l-4-2.71a19.11,19.11,0,0,1-4.16,1.76L57.09,75A1.72,1.72,0,0,1,55.5,76.23ZM50.7,73h3.36l.8-4.47a1.74,1.74,0,0,1,1.28-1.28,20.34,20.34,0,0,0,5.11-2.08,1.73,1.73,0,0,1,1.76,0l3.67,2.56,2.4-2.4-2.56-3.67a1.73,1.73,0,0,1,0-1.76,15.74,15.74,0,0,0,2.08-5.11,1.74,1.74,0,0,1,1.28-1.28l4.47-.8V49.38l-4.47-.79a1.74,1.74,0,0,1-1.28-1.28,20.26,20.26,0,0,0-2.08-5.12,1.72,1.72,0,0,1,0-1.75l2.56-3.68-2.4-2.4L63,36.92a1.73,1.73,0,0,1-1.76,0,15.74,15.74,0,0,0-5.11-2.08,1.74,1.74,0,0,1-1.28-1.27l-.8-4.48H50.7l-.8,4.48a1.74,1.74,0,0,1-1.27,1.27,14.91,14.91,0,0,0-5,2.08,1.73,1.73,0,0,1-1.76,0l-3.67-2.56-2.56,2.4,2.56,3.68a1.72,1.72,0,0,1,0,1.75,15.71,15.71,0,0,0-2.08,5.12,1.74,1.74,0,0,1-1.28,1.28l-4.47.79v3.36l4.47.8a1.74,1.74,0,0,1,1.28,1.28,20.34,20.34,0,0,0,2.08,5.11,1.73,1.73,0,0,1,0,1.76l-2.56,3.67,2.4,2.4,3.67-2.56a1.73,1.73,0,0,1,1.76,0,15.71,15.71,0,0,0,5.12,2.08,1.74,1.74,0,0,1,1.27,1.28Z"/>
    <circle class="cls-4" cx="52.46" cy="50.98" r="12.94"/>
    <circle class="cls-1" cx="52.46" cy="50.98" r="5.43"/>
    <path class="cls-3"
          d="M52.46,58.17a7,7,0,1,1,7-7A7.09,7.09,0,0,1,52.46,58.17Zm0-11A3.84,3.84,0,1,0,56.29,51,3.88,3.88,0,0,0,52.46,47.15Z"/>
    <path class="cls-5"
          d="M89.53,81h12.3a13.7,13.7,0,0,0-11.66-6.39,13.86,13.86,0,0,0-12.46,8H27.05a13.59,13.59,0,0,0-12.46-8A14.12,14.12,0,0,0,2.93,81h12.3L20,88.37l-4.79,7.35H2.93a13.67,13.67,0,0,0,11.66,6.39,13.84,13.84,0,0,0,12.46-8H77.87a13.57,13.57,0,0,0,12.46,8A14.09,14.09,0,0,0,102,95.72H89.69L84.9,88.37Z"/>
    <path class="cls-3"
          d="M90.33,103.71a15.09,15.09,0,0,1-13.42-8H28a15.27,15.27,0,0,1-13.42,8,15.59,15.59,0,0,1-12.94-7,1.45,1.45,0,0,1,0-1.6,1.68,1.68,0,0,1,1.44-.8h11.5l3.84-5.75-3.84-5.75H2.93A1.68,1.68,0,0,1,1.49,82a1.45,1.45,0,0,1,0-1.6,15.21,15.21,0,0,1,12.94-7,15.09,15.09,0,0,1,13.42,8h48.9A15.29,15.29,0,0,1,103,80.22a1.45,1.45,0,0,1,.48,1.12,1.51,1.51,0,0,1-1.6,1.6H90.33l-3.84,5.75,3.84,5.75h11.5a1.68,1.68,0,0,1,1.44.8,1.45,1.45,0,0,1,0,1.6A15.85,15.85,0,0,1,90.33,103.71ZM27.05,92.53H77.87a1.54,1.54,0,0,1,1.43,1,12.13,12.13,0,0,0,11,7,11.89,11.89,0,0,0,8.15-3.19h-9a1.43,1.43,0,0,1-1.28-.8l-4.79-7.35a1.73,1.73,0,0,1,0-1.76l4.79-7.35a1.63,1.63,0,0,1,1.28-.8h9A12.11,12.11,0,0,0,79.3,83.1a1.53,1.53,0,0,1-1.43,1H27.05a1.53,1.53,0,0,1-1.43-1,12.13,12.13,0,0,0-11-7,11.94,11.94,0,0,0-8.15,3.19h9a1.43,1.43,0,0,1,1.28.8l4.79,7.35a1.73,1.73,0,0,1,0,1.76l-4.79,7.35a1.63,1.63,0,0,1-1.28.8H6.28a11.89,11.89,0,0,0,8.15,3.19,12,12,0,0,0,11-7A1.76,1.76,0,0,1,27.05,92.53Z"/>
    <rect class="cls-3" x="40.64" y="86.77" width="3.2" height="3.2"/>
    <rect class="cls-3" x="50.86" y="86.77" width="3.2" height="3.2"/>
    <rect class="cls-3" x="61.09" y="86.77" width="3.2" height="3.2"/>
</svg>